<svg width="200" height="75" viewBox="0 0 200 75" fill="none" xmlns="http://www.w3.org/2000/svg">
<path d="M63.8691 34.8543L51.774 46.9561V27.5938H32.4217V46.9561H51.774L39.6788 59.058H29.6533L20.3232 49.7246V24.8287L29.6533 15.4919H54.5357L63.8658 24.8287V34.8543H63.8691ZM63.8691 59.058V46.9561H51.774V59.058H63.8691Z" fill="url(#paint0_linear_1_162)"/>
<path d="M92.9143 29.0383V51.0045H76.989L72.675 46.6905V29.0383H78.2455V46.1395H87.3471V29.0383H92.9143Z" fill="#1E1F1D"/>
<path d="M96.7175 46.8451V33.1944L100.877 29.0383H116.332V41.3552H102.291V46.2974H115.549V51.0045H100.88L96.7175 46.8451ZM102.288 38.2945L111.467 37.9014V33.4295H102.288V38.2945Z" fill="#1E1F1D"/>
<path d="M119.86 51.0045V46.4553H133.981V41.6274H119.86V33.1944L124.016 29.0383H139.548V33.5875H125.427V38.1769H139.548V46.9627L135.509 51.0011H119.86V51.0045Z" fill="#1E1F1D"/>
<path d="M143.354 25.5073L148.925 23.5452V29.8212H157.398V34.5282H148.925V46.2941H157.398V51.0012H147.672L143.358 46.6872V25.5073H143.354Z" fill="#1E1F1D"/>
<path d="M159.831 46.6872V38.449L174.106 38.0559V33.742H160.614V29.0383H175.363L179.677 33.3523V51.0011H164.145L159.831 46.6872ZM165.398 41.9029V46.452H174.106V41.1167L165.398 41.9029Z" fill="#1E1F1D"/>
<defs>
<linearGradient id="paint0_linear_1_162" x1="30.0016" y1="26.4558" x2="62.4549" y2="55.4895" gradientUnits="userSpaceOnUse">
<stop stop-color="#203C8D"/>
<stop offset="0.9993" stop-color="#CD3266"/>
</linearGradient>
</defs>
</svg>
